<svg width="42" height="42" viewBox="0 0 42 42" fill="none" xmlns="http://www.w3.org/2000/svg">
<g clip-path="url(#clip0_55_7)">
<path d="M14.9924 35.773C13.1015 34.0385 12.5495 30.3941 13.3373 27.754C14.7033 29.4186 16.596 29.9458 18.5565 30.2435C21.583 30.7028 24.5554 30.5311 27.3669 29.143C27.6884 28.984 27.9856 28.7728 28.3371 28.5587C28.6009 29.3266 28.6695 30.1021 28.5774 30.8911C28.3534 32.8131 27.4003 34.2976 25.8843 35.4229C25.278 35.873 24.6366 36.2754 24.0105 36.6999C22.0872 38.0044 21.5668 39.5339 22.2894 41.7589C22.3067 41.8131 22.3221 41.8673 22.3608 41.9996C21.3788 41.5586 20.6615 40.9166 20.115 40.0722C19.5376 39.1811 19.2629 38.1954 19.2485 37.1288C19.2412 36.6099 19.2412 36.0861 19.1717 35.5746C19.0018 34.327 18.4183 33.7684 17.3187 33.7362C16.1904 33.7032 15.2977 34.4032 15.0611 35.5055C15.043 35.5901 15.0168 35.6737 14.9906 35.772L14.9924 35.773Z" fill="#ED5B2B"/>
<path d="M4.2 27.3141C4.2 27.3141 9.79927 24.577 15.4142 24.577L19.6476 11.4301C19.8061 10.7943 20.2689 10.3622 20.7913 10.3622C21.3138 10.3622 21.7766 10.7943 21.9351 11.4301L26.1686 24.577C32.8186 24.577 37.3827 27.3141 37.3827 27.3141C37.3827 27.3141 27.872 1.31551 27.8533 1.26334C27.5803 0.494686 27.1196 -0.000366211 26.4983 -0.000366211H15.0855C14.4642 -0.000366211 14.0219 0.494686 13.7304 1.26334C13.7098 1.31452 4.2 27.3141 4.2 27.3141Z" fill="#ED5B2B"/>
</g>
<defs>
<clipPath id="clip0_55_7">
<rect width="42" height="42" fill="white"/>
</clipPath>
</defs>
</svg>
