<svg width="43" height="42" viewBox="0 0 43 42" fill="none" xmlns="http://www.w3.org/2000/svg">
<path d="M21.1288 24.7031C23.1738 24.7031 24.8316 23.0453 24.8316 21.0003C24.8316 18.9553 23.1738 17.2975 21.1288 17.2975C19.0838 17.2975 17.426 18.9553 17.426 21.0003C17.426 23.0453 19.0838 24.7031 21.1288 24.7031Z" fill="#ED5B2B"/>
<path d="M21.1288 28.5865C32.102 28.5865 40.9976 25.19 40.9976 21.0002C40.9976 16.8104 32.102 13.4139 21.1288 13.4139C10.1556 13.4139 1.26001 16.8104 1.26001 21.0002C1.26001 25.19 10.1556 28.5865 21.1288 28.5865Z" stroke="#ED5B2B" stroke-width="2"/>
<path d="M14.5589 24.7933C20.0455 34.2964 27.4347 40.302 31.0632 38.207C34.6916 36.1122 33.1853 26.7102 27.6987 17.2071C22.2121 7.70397 14.8229 1.69845 11.1944 3.79334C7.56594 5.88822 9.07227 15.2903 14.5589 24.7933Z" stroke="#ED5B2B" stroke-width="2"/>
<path d="M14.5589 17.2071C9.0723 26.7102 7.56593 36.1122 11.1944 38.2071C14.8229 40.3019 22.2121 34.2964 27.6987 24.7934C33.1853 15.2902 34.6916 5.88823 31.0632 3.79334C27.4347 1.69845 20.0455 7.70397 14.5589 17.2071Z" stroke="#ED5B2B" stroke-width="2"/>
</svg>
