<svg width="93" height="92" viewBox="0 0 93 92" fill="none" xmlns="http://www.w3.org/2000/svg">
<path d="M51.2672 32.0543L51.4149 32.9179L52.0833 32.3514L74.5958 13.2695L59.7182 38.7479L59.2765 39.5043L60.1525 39.5L89.6531 39.3544L61.8813 49.3093L61.0568 49.6049L61.7305 50.1646L84.4253 69.0193L56.7433 58.791L55.9216 58.4874L56.078 59.3493L61.3463 88.384L46.7243 62.7522L46.2901 61.9912L45.8558 62.7521L31.2232 88.3863L36.492 59.3493L36.6484 58.4873L35.8267 58.791L8.15538 69.0187L30.8495 50.1646L31.5233 49.6048L30.6987 49.3093L2.91774 39.3544L32.4275 39.5L33.3035 39.5043L32.8618 38.7479L17.9842 13.2695L40.4967 32.3514L41.1651 32.9179L41.3128 32.0543L46.29 2.96478L51.2672 32.0543Z" stroke="#FCFAF8"/>
</svg>
