<svg width="42" height="42" viewBox="0 0 42 42" fill="none" xmlns="http://www.w3.org/2000/svg">
<path d="M21.0001 8.40027C15.3999 8.40027 11.9 11.1996 10.4998 16.7976C12.6001 13.9983 15.0501 12.949 17.8499 13.6485C19.4476 14.0477 20.5894 15.2068 21.8536 16.4893C23.9123 18.5786 26.2951 20.9966 31.5004 20.9966C37.1 20.9966 40.6004 18.1973 42 12.5987C39.9004 15.398 37.4503 16.4478 34.6499 15.7483C33.0529 15.3491 31.911 14.19 30.6469 12.9075C28.5881 10.8183 26.2048 8.40027 21.0001 8.40027ZM10.4998 20.9966C4.90017 20.9966 1.39974 23.7959 9.15527e-05 29.3944C2.09983 26.5952 4.54989 25.5453 7.35024 26.2454C8.94733 26.6451 10.0891 27.8036 11.3533 29.0857C13.4121 31.1749 15.7954 33.5934 21.0001 33.5934C26.6003 33.5934 30.1002 30.7941 31.5004 25.1955C29.4001 27.9948 26.95 29.0447 24.1502 28.3446C22.5526 27.946 21.4108 26.7863 20.1466 25.5043C18.0879 23.4151 15.705 20.9966 10.4998 20.9966Z" fill="#ED5B2B"/>
</svg>
