<svg width="251" height="251" viewBox="0 0 251 251" fill="none" xmlns="http://www.w3.org/2000/svg">
<path d="M11.9048 113.83C12.3589 109.655 13.5899 106.66 15.5977 104.847C17.5879 103.011 20.2431 102.274 23.5636 102.635C25.7308 102.871 27.5755 103.574 29.0978 104.746C30.6002 105.915 31.696 107.493 32.3853 109.479C33.0768 111.445 33.2787 113.75 32.9911 116.395C32.9565 116.713 32.9001 117.139 32.8218 117.674C32.7457 118.189 32.6763 118.735 32.6136 119.311C32.531 119.886 32.4648 120.401 32.4151 120.859C32.307 121.853 32.211 122.828 32.1271 123.785C32.0254 124.719 31.9631 125.477 31.9402 126.058L31.3437 125.993C31.371 125.372 31.3412 124.906 31.2543 124.595C31.1675 124.284 30.9505 124.059 30.6034 123.921C30.2563 123.782 29.7249 123.674 29.0091 123.597L14.2163 121.988C13.4807 121.908 12.9384 121.899 12.5896 121.962C12.2209 122.022 11.9596 122.205 11.8057 122.51C11.6341 122.793 11.5059 123.232 11.4212 123.826L10.8247 123.761C10.9073 123.187 11.0193 122.435 11.1607 121.505C11.2844 120.552 11.3882 119.598 11.4721 118.641C11.5322 117.904 11.602 117.076 11.6816 116.16C11.7634 115.223 11.8378 114.446 11.9048 113.83ZM12.4903 113.441C12.3908 114.356 12.495 114.97 12.8027 115.286C13.1104 115.601 13.7812 115.815 14.8151 115.927L29.7272 117.549C30.7611 117.661 31.4622 117.597 31.8305 117.355C32.2009 117.094 32.4359 116.505 32.5354 115.591C32.6824 114.239 32.4125 113.113 31.7258 112.214C31.0191 111.312 29.9297 110.6 28.4575 110.078C26.9875 109.536 25.1689 109.147 23.0017 108.911C20.7748 108.669 18.9141 108.668 17.4194 108.907C15.907 109.125 14.7474 109.613 13.9409 110.37C13.1165 111.105 12.633 112.129 12.4903 113.441Z" fill="#FCFAF8"/>
<path d="M19.8126 81.438C20.7348 81.8331 21.6348 82.1997 22.5128 82.5378C23.3783 82.8505 24.0479 83.0867 24.5218 83.2463C24.9198 83.3804 25.302 83.4987 25.6685 83.601C26.035 83.7034 26.3447 83.7867 26.5974 83.8507L26.3771 84.5046C24.7274 84.202 23.3677 84.166 22.2981 84.3965C21.2095 84.6207 20.3639 85.0322 19.7611 85.6311C19.1458 86.2046 18.7072 86.8799 18.4453 87.657L18.3208 88.0266C18.1548 88.5194 18.0776 88.9049 18.0894 89.1832C18.0822 89.4552 18.1858 89.68 18.4003 89.8578C18.6211 90.0166 18.9969 90.1854 19.5276 90.3643L34.7658 95.4986C35.2776 95.6711 35.6789 95.7641 35.9698 95.7776C36.2481 95.7659 36.4761 95.6528 36.6539 95.4383C36.8127 95.2175 36.9752 94.8607 37.1412 94.3679L37.4573 93.4297C37.6681 92.8043 37.6894 92.0833 37.5212 91.2669C37.3406 90.4252 36.8564 89.5445 36.0688 88.6249C35.2812 87.7052 34.0856 86.8064 32.482 85.9284L32.7024 85.2746C33.3655 85.5613 34.2278 85.8835 35.2892 86.2411C35.763 86.4008 36.4485 86.6212 37.3457 86.9024C38.2239 87.1772 39.1528 87.4269 40.1324 87.6514C39.7688 88.6052 39.3826 89.6886 38.9739 90.9016C38.5463 92.1083 38.1728 93.1854 37.8535 94.133C37.6811 94.6448 37.4607 95.2987 37.1925 96.0947C36.9307 96.8718 36.6528 97.7278 36.3588 98.6629C36.0523 99.5727 35.7489 100.505 35.4485 101.459C35.1356 102.387 34.8481 103.272 34.5861 104.112L34.0175 103.921C34.1776 103.32 34.2486 102.859 34.2307 102.536C34.2128 102.214 34.0492 101.947 33.74 101.738C33.4308 101.528 32.935 101.308 32.2527 101.078L18.1516 96.327C17.4503 96.0908 16.9226 95.9657 16.5685 95.9519C16.1954 95.9317 15.9009 96.0541 15.685 96.3191C15.4566 96.5586 15.2371 96.9595 15.0265 97.5218L14.458 97.3302C14.7579 96.5026 15.0738 95.6277 15.4057 94.7054C15.725 93.7577 16.0474 92.8322 16.3728 91.9289C16.6858 91.0002 16.9731 90.1473 17.235 89.3702C17.5032 88.5742 17.7235 87.9203 17.8959 87.4085C18.1897 86.5367 18.5217 85.5511 18.8921 84.4519C19.25 83.3273 19.5568 82.3226 19.8126 81.438ZM28.1466 88.8364C28.1466 88.8364 28.2414 88.8683 28.4309 88.9321C28.6204 88.996 28.7152 89.0279 28.7152 89.0279L27.0868 93.861C27.0868 93.861 26.992 93.829 26.8025 93.7652C26.6129 93.7013 26.5182 93.6694 26.5182 93.6694L28.1466 88.8364ZM24.6717 86.7475C25.7265 87.1873 26.5382 87.503 27.1067 87.6946C27.6817 87.8672 28.2061 88.0333 28.68 88.193C29.1538 88.3526 29.6782 88.5188 30.2532 88.6914C30.8281 88.864 31.6686 89.0944 32.7744 89.3826L32.5541 90.0365C31.8145 89.9139 31.0998 89.9369 30.4099 90.1054C29.7263 90.255 29.1308 90.5503 28.6234 90.9914C28.0971 91.4261 27.7126 92.0036 27.4699 92.7238L26.9013 92.5322C27.0801 92.0015 27.1293 91.4799 27.0487 90.9673C26.9681 90.4548 26.7926 89.9736 26.5221 89.5236C26.258 89.0548 25.9431 88.6426 25.5774 88.2873C25.2181 87.913 24.8428 87.6176 24.4514 87.4013L24.6717 86.7475Z" fill="#FCFAF8"/>
<path d="M33.4772 56.8219L33.9913 57.1312C33.9426 57.6388 34.0619 58.2941 34.349 59.097C34.619 59.8897 35.1838 60.8131 36.0434 61.8671L47.1141 75.3555C46.9733 75.5508 46.8307 75.7684 46.6863 76.0083C46.5351 76.2208 46.3874 76.447 46.243 76.6869C46.109 76.9097 45.9783 77.1462 45.8511 77.3964C45.7171 77.6192 45.5967 77.8386 45.4901 78.0546L25.3975 75.1383C24.6534 75.0173 24.0788 75.0217 23.674 75.1516C23.2794 75.2643 23.0013 75.4354 22.8398 75.6651L22.3257 75.3557C22.7141 74.7491 23.1643 74.0396 23.6763 73.2274C24.1987 72.398 24.7125 71.5634 25.2178 70.7237C25.7436 69.8497 26.23 69.0219 26.6768 68.2405C27.1237 67.459 27.4778 66.8317 27.739 66.3587L28.2531 66.6681C27.9506 67.2096 27.758 67.6656 27.6752 68.0359C27.5924 68.4062 27.6898 68.7099 27.9674 68.9469C28.2381 69.1565 28.7541 69.3269 29.5154 69.4582L43.687 71.6829L44.1127 72.7793L37.65 64.8995C36.4616 63.4609 35.4407 62.4615 34.5873 61.9013C33.7168 61.3309 32.9711 61.1156 32.3501 61.2555C31.7291 61.3953 31.2038 61.8028 30.7742 62.478L30.2601 62.1687C30.6691 61.5278 31.0316 60.964 31.3478 60.4773C31.6742 59.9735 32.0128 59.4303 32.3633 58.8476C32.5696 58.5049 32.7724 58.1484 32.9718 57.7782C33.1712 57.408 33.3396 57.0893 33.4772 56.8219Z" fill="#FCFAF8"/>
<path d="M48.0283 41.0931C48.6993 41.8389 49.3622 42.5495 50.0171 43.225C50.6713 43.8722 51.1799 44.3678 51.5429 44.7116C51.8478 45.0004 52.1451 45.2683 52.4347 45.5151C52.7243 45.7619 52.9704 45.9674 53.1729 46.1317L52.6984 46.6326C51.3282 45.6653 50.1093 45.0617 49.0418 44.8218C47.9597 44.5682 47.0194 44.5866 46.2209 44.877C45.4216 45.1391 44.74 45.5679 44.1761 46.1632L43.9079 46.4463C43.5503 46.8239 43.3184 47.1414 43.2122 47.3989C43.0914 47.6427 43.0911 47.8903 43.2111 48.1417C43.3448 48.3786 43.615 48.6896 44.0215 49.0747L55.6955 60.1329C56.0876 60.5042 56.4127 60.7571 56.671 60.8916C56.9285 60.9978 57.183 60.9909 57.4344 60.8709C57.6713 60.7372 57.9685 60.4816 58.3261 60.1041L59.007 59.3853C59.4608 58.9062 59.7829 58.2608 59.9731 57.4493C60.1626 56.6094 60.093 55.6069 59.7643 54.4415C59.4357 53.2762 58.728 51.9585 57.6412 50.4883L58.1157 49.9873C58.5972 50.526 59.2445 51.1805 60.0576 51.9507C60.4206 52.2946 60.9502 52.7825 61.6464 53.4144C62.3281 54.0325 63.0663 54.6492 63.861 55.2643C63.1305 55.9773 62.3252 56.7984 61.4449 57.7277C60.5501 58.6432 59.7589 59.464 59.0712 60.19C58.6998 60.582 58.2253 61.0829 57.6477 61.6928C57.0837 62.2881 56.4721 62.9484 55.8127 63.6736C55.1525 64.3706 54.4858 65.0889 53.8126 65.8287C53.1387 66.5401 52.5064 67.2222 51.9157 67.8748L51.4801 67.4622C51.8774 66.9846 52.1357 66.5956 52.2549 66.2953C52.3741 65.995 52.3374 65.6847 52.1448 65.3645C51.9522 65.0444 51.5945 64.6367 51.0718 64.1416L40.269 53.9086C39.7318 53.3997 39.3054 53.0646 38.9897 52.9034C38.6596 52.7285 38.341 52.7159 38.0338 52.8657C37.7258 52.9872 37.3583 53.2589 36.9311 53.6807L36.4956 53.2681C37.1152 52.643 37.7693 51.9815 38.4578 51.2838C39.1455 50.5578 39.8267 49.8532 40.5014 49.17C41.1754 48.4585 41.7943 47.8051 42.3582 47.2098C42.9359 46.6 43.4104 46.0991 43.7817 45.707C44.4144 45.0391 45.1296 44.2841 45.9274 43.4419C46.7243 42.5715 47.4246 41.7886 48.0283 41.0931ZM52.4855 51.307C52.4855 51.307 52.5581 51.3758 52.7033 51.5133C52.8485 51.6509 52.9211 51.7196 52.9211 51.7196L49.4138 55.4222C49.4138 55.4222 49.3412 55.3534 49.196 55.2159C49.0508 55.0784 48.9782 55.0096 48.9782 55.0096L52.4855 51.307ZM50.2088 47.9521C50.9815 48.7942 51.5856 49.4215 52.0212 49.8341C52.4705 50.2322 52.8767 50.6032 53.2397 50.947C53.6027 51.2909 54.0089 51.6619 54.4582 52.06C54.9076 52.4581 55.5736 53.0201 56.4562 53.746L55.9817 54.2469C55.362 53.8251 54.7036 53.5459 54.0067 53.4091C53.3235 53.2579 52.6591 53.2759 52.0134 53.4631C51.3532 53.6366 50.7617 53.9993 50.2391 54.551L49.8035 54.1384C50.1886 53.7318 50.4522 53.2791 50.5943 52.7801C50.7364 52.281 50.7792 51.7706 50.7226 51.2487C50.6797 50.7122 50.567 50.206 50.3843 49.7299C50.2154 49.2393 49.9988 48.8137 49.7343 48.453L50.2088 47.9521Z" fill="#FCFAF8"/>
<path d="M63.607 29.3435L63.9437 29.8401C63.3921 30.2382 63.0066 30.5963 62.7872 30.9142C62.5731 31.2043 62.5175 31.532 62.6202 31.8973C62.7116 32.2461 62.965 32.7267 63.3803 33.3392L72.0675 46.1518C72.3705 46.5988 72.6337 46.9157 72.8571 47.1026C73.0692 47.2729 73.2943 47.3377 73.5326 47.297C73.7595 47.2397 74.0468 47.0933 74.3945 46.8576L75.2139 46.302C75.6443 46.0102 75.9956 45.5304 76.2677 44.8626C76.5398 44.1948 76.7112 43.4141 76.7819 42.5204C76.8691 41.6155 76.8397 40.6811 76.6934 39.717C76.536 38.7364 76.2624 37.7983 75.8726 36.9027L76.4437 36.5155C76.7981 37.1451 77.2896 37.9234 77.9181 38.8504C78.21 39.2808 78.6447 39.9042 79.2225 40.7207C79.789 41.5206 80.4111 42.3312 81.0887 43.1524C80.222 43.6917 79.2589 44.3205 78.1995 45.0388C77.1288 45.7406 76.1796 46.3721 75.352 46.9333C74.905 47.2363 74.3339 47.6235 73.6386 48.0949C72.9599 48.5551 72.2206 49.0685 71.4207 49.635C70.6261 50.1737 69.8206 50.7319 69.0041 51.3097C68.193 51.8597 67.4289 52.3898 66.7117 52.9002L66.375 52.4036C66.8657 52.0226 67.2016 51.6982 67.3825 51.4305C67.5635 51.1629 67.5944 50.852 67.4751 50.4979C67.3558 50.1438 67.0942 49.6688 66.6901 49.0729L58.3397 36.7568C57.9244 36.1443 57.58 35.7255 57.3064 35.5002C57.0216 35.2583 56.7131 35.1775 56.3809 35.2578C56.054 35.3103 55.6367 35.4966 55.1288 35.8167L54.7921 35.3201C55.2834 35.0112 55.9237 34.6012 56.7129 34.0903C57.5187 33.5681 58.3686 33.004 59.2625 32.3979C60.0902 31.8367 60.8957 31.2784 61.6791 30.7232C62.4624 30.1679 63.1051 29.708 63.607 29.3435Z" fill="#FCFAF8"/>
<path d="M83.6011 18.6519C85.7005 17.8154 87.6991 17.482 89.5967 17.6517C91.4942 17.8213 93.1795 18.4847 94.6523 19.6417C96.1178 20.7801 97.2762 22.4177 98.1275 24.5543C98.9566 26.6352 99.2362 28.6337 98.9662 30.5497C98.6962 32.4657 97.9362 34.1787 96.6863 35.6885C95.455 37.191 93.8082 38.3531 91.7458 39.1748C89.6463 40.0113 87.6478 40.3447 85.7502 40.175C83.8527 40.0054 82.1674 39.342 80.6946 38.185C79.2217 37.028 78.0633 35.3905 77.2194 33.2724C76.3903 31.1915 76.1107 29.193 76.3807 27.277C76.6693 25.3536 77.4292 23.6406 78.6606 22.1382C79.8919 20.6357 81.5387 19.4736 83.6011 18.6519ZM83.6895 19.198C82.7605 19.5681 82.1188 20.3082 81.7645 21.4181C81.4102 22.5281 81.3396 23.891 81.5529 25.5069C81.7661 27.1227 82.2577 28.8968 83.0275 30.829C83.8122 32.7985 84.7107 34.4319 85.7228 35.7295C86.7275 37.0084 87.7514 37.903 88.7943 38.4132C89.8298 38.9048 90.7842 38.9767 91.6574 38.6287C92.5864 38.2586 93.2281 37.5185 93.5824 36.4086C93.9367 35.2986 94.0072 33.9357 93.794 32.3198C93.5734 30.6854 93.0818 28.9114 92.3193 26.9977C91.5272 25.0097 90.6288 23.3762 89.6241 22.0972C88.6193 20.8183 87.5992 19.933 86.5637 19.4414C85.5208 18.9312 84.5627 18.85 83.6895 19.198Z" fill="#FCFAF8"/>
<path d="M98.373 14.0509C98.9486 13.9768 99.7018 13.8736 100.633 13.7412C101.583 13.6057 102.532 13.4602 103.48 13.3049C104.466 13.1431 105.412 12.9779 106.317 12.8094C107.221 12.6408 107.861 12.5258 108.236 12.4643C111.236 11.9725 113.555 12.1496 115.194 12.9957C116.852 13.8385 117.822 15.1185 118.103 16.8355C118.22 17.5461 118.195 18.3203 118.028 19.1583C117.858 19.9766 117.473 20.7795 116.873 21.567C116.269 22.3348 115.379 23.0278 114.204 23.6461C113.048 24.2612 111.523 24.7241 109.628 25.0347L106.49 25.5491L106.393 24.9571L109.235 24.4911C110.242 24.3261 110.958 23.9351 111.384 23.3181C111.829 22.6978 112.07 21.9389 112.105 21.0414C112.16 20.1406 112.105 19.187 111.94 18.1804C111.632 16.3054 111.186 14.9397 110.599 14.0833C110.033 13.2236 109.226 12.8796 108.18 13.051C107.509 13.1611 107.103 13.4 106.96 13.7679C106.818 14.1358 106.831 14.8328 106.999 15.8591L109.358 30.2471C109.491 31.0563 109.668 31.6453 109.891 32.0141C110.133 32.3797 110.501 32.5829 110.994 32.6237C111.487 32.6645 112.188 32.6104 113.095 32.4616L113.207 33.1425C112.533 33.2328 111.651 33.357 110.563 33.5152C109.474 33.6735 108.318 33.8529 107.094 34.0535C106.186 34.2023 105.28 34.361 104.375 34.5296C103.47 34.6982 102.615 34.8587 101.809 35.0111L101.712 34.419C102.318 34.2792 102.759 34.1258 103.035 33.9589C103.312 33.7919 103.47 33.5227 103.511 33.1513C103.551 32.7799 103.513 32.2389 103.397 31.5284L100.989 16.8444C100.87 16.1141 100.733 15.5893 100.579 15.27C100.422 14.9309 100.176 14.7281 99.8411 14.6614C99.5224 14.5718 99.0654 14.5656 98.47 14.643L98.373 14.0509Z" fill="#FCFAF8"/>
<path d="M139.592 11.7108C139.458 12.705 139.346 13.6704 139.255 14.6068C139.185 15.5244 139.137 16.2328 139.11 16.7321C139.087 17.1514 139.075 17.5514 139.075 17.9319C139.074 18.3125 139.077 18.6331 139.083 18.8938L138.394 18.8564C138.244 17.1859 137.915 15.8661 137.406 14.8972C136.899 13.9083 136.276 13.2035 135.538 12.7829C134.821 12.3434 134.053 12.1015 133.234 12.0571L132.845 12.036C132.325 12.0078 131.933 12.0367 131.668 12.1224C131.404 12.1882 131.215 12.3482 131.101 12.6025C131.007 12.8577 130.945 13.265 130.915 13.8242L130.044 29.8806C130.015 30.4198 130.033 30.8313 130.098 31.1153C130.183 31.3803 130.353 31.5698 130.608 31.6837C130.863 31.7777 131.25 31.8387 131.769 31.8669L132.758 31.9205C133.417 31.9562 134.117 31.7839 134.859 31.4035C135.622 31.0042 136.341 30.3021 137.016 29.2972C137.692 28.2923 138.238 26.8998 138.655 25.1197L139.344 25.1571C139.245 25.8728 139.165 26.7898 139.105 27.9082C139.077 28.4074 139.048 29.1269 139.018 30.0666C138.988 30.9864 138.996 31.9482 139.041 32.9522C138.025 32.857 136.878 32.7748 135.6 32.7055C134.323 32.6162 133.185 32.5445 132.186 32.4904C131.647 32.4611 130.958 32.4238 130.119 32.3783C129.301 32.3339 128.401 32.2952 127.422 32.2621C126.463 32.2101 125.484 32.167 124.484 32.1329C123.506 32.0798 122.577 32.0394 121.697 32.0118L121.729 31.4126C122.351 31.4063 122.814 31.3513 123.12 31.2477C123.426 31.1441 123.639 30.9153 123.758 30.5612C123.878 30.2072 123.957 29.6707 123.996 28.9517L124.801 14.0936C124.842 13.3546 124.821 12.8127 124.739 12.4678C124.659 12.1029 124.462 11.8519 124.149 11.7148C123.857 11.5587 123.412 11.4545 122.814 11.402L122.847 10.8029C123.724 10.8705 124.652 10.9408 125.629 11.0139C126.628 11.068 127.606 11.1311 128.563 11.203C129.542 11.2561 130.441 11.3048 131.26 11.3492C132.098 11.3946 132.787 11.432 133.326 11.4612C134.245 11.511 135.284 11.5674 136.442 11.6302C137.621 11.6741 138.671 11.701 139.592 11.7108ZM134.693 21.7203C134.693 21.7203 134.688 21.8201 134.677 22.0198C134.666 22.2195 134.661 22.3194 134.661 22.3194L129.568 22.0433C129.568 22.0433 129.573 21.9434 129.584 21.7437C129.595 21.544 129.601 21.4442 129.601 21.4442L134.693 21.7203ZM135.776 17.8132C135.635 18.9472 135.548 19.8137 135.515 20.4129C135.503 21.0131 135.483 21.5628 135.456 22.0621C135.429 22.5613 135.409 23.1111 135.396 23.7113C135.384 24.3115 135.387 25.1829 135.405 26.3256L134.716 26.2882C134.636 25.5428 134.423 24.8602 134.076 24.2405C133.749 23.6219 133.305 23.1272 132.744 22.7563C132.184 22.3654 131.525 22.1494 130.766 22.1083L130.799 21.5091C131.358 21.5394 131.874 21.4472 132.346 21.2325C132.818 21.0177 133.235 20.7199 133.596 20.3389C133.977 19.9589 134.29 19.5453 134.535 19.0979C134.799 18.6515 134.983 18.2108 135.087 17.7758L135.776 17.8132Z" fill="#FCFAF8"/>
<path d="M146.52 12.6146C147.074 12.7891 147.8 13.0117 148.701 13.2824C149.621 13.5585 150.543 13.825 151.468 14.0818C152.431 14.3493 153.359 14.5965 154.251 14.8234C155.143 15.0502 155.772 15.2145 156.138 15.3162C158.103 15.8619 159.671 16.4944 160.842 17.2137C162.031 17.9384 162.84 18.7647 163.267 19.6929C163.699 20.6018 163.758 21.6247 163.442 22.7617C163.244 23.4747 162.907 24.1283 162.431 24.7225C161.954 25.3168 161.292 25.797 160.443 26.1632C159.599 26.5102 158.525 26.679 157.22 26.6695C155.94 26.6461 154.374 26.3776 152.524 25.8639L149.749 25.0934L149.91 24.5153L152.396 25.2055C153.379 25.4784 154.179 25.4724 154.798 25.1876C155.442 24.8888 155.949 24.407 156.32 23.7421C156.716 23.0633 157.037 22.2807 157.284 21.3942C157.706 19.8718 157.821 18.6374 157.627 17.691C157.457 16.7308 156.862 16.1088 155.841 15.8253C155.186 15.6433 154.716 15.6894 154.432 15.9635C154.149 16.2376 153.868 16.8757 153.59 17.8778L149.609 32.2154C149.416 32.9092 149.32 33.4429 149.32 33.8165C149.339 34.1955 149.477 34.4829 149.734 34.6788C149.991 34.8747 150.404 35.0722 150.971 35.2712L150.81 35.8494C150.262 35.6557 149.545 35.4357 148.659 35.1896C147.797 34.9296 146.913 34.6738 146.007 34.4223C144.966 34.1334 143.981 33.8702 143.051 33.6326C142.145 33.3811 141.407 33.1971 140.838 33.0804L140.998 32.5023C141.606 32.6296 142.071 32.6756 142.392 32.6403C142.713 32.6049 142.97 32.4271 143.163 32.107C143.356 31.7869 143.548 31.2799 143.741 30.5862L147.722 16.2486C147.92 15.5355 148.016 15.0018 148.01 14.6475C148.01 14.2739 147.872 13.9864 147.596 13.7852C147.344 13.57 146.932 13.3726 146.359 13.1928L146.52 12.6146ZM149.712 24.5539C150.401 24.7657 151.045 24.9862 151.646 25.2152C152.246 25.4443 152.799 25.6599 153.303 25.8622C153.813 26.0452 154.248 26.1972 154.609 26.3181C156.644 26.987 158.087 27.7715 158.937 28.6718C159.806 29.5774 160.191 30.6597 160.09 31.9187L159.863 35.0935C159.819 35.8494 159.856 36.3889 159.974 36.7122C160.091 37.0355 160.314 37.2426 160.642 37.3336C160.834 37.3871 161.006 37.4037 161.157 37.3833C161.308 37.363 161.47 37.3041 161.642 37.2066L161.914 37.6867C161.15 38.1183 160.383 38.3411 159.611 38.3551C158.853 38.3937 158.031 38.2899 157.144 38.0438C155.892 37.696 154.941 37.1935 154.294 36.5363C153.651 35.8597 153.406 34.9096 153.559 33.6859L153.928 30.6749C154.032 29.8527 154.083 29.1092 154.081 28.4443C154.078 27.7795 153.981 27.2335 153.788 26.8064C153.601 26.36 153.257 26.0672 152.756 25.9281L149.634 25.0613L149.712 24.5539Z" fill="#FCFAF8"/>
<path d="M203.843 41.9589L203.455 42.4162C202.984 42.043 202.582 41.8062 202.248 41.7057C201.941 41.603 201.633 41.6564 201.324 41.8661C201.028 42.0604 200.64 42.4396 200.161 43.0036L190.528 54.3446C190.062 54.8934 189.75 55.3373 189.594 55.6764C189.452 56.0285 189.457 56.3474 189.608 56.633C189.759 56.9187 190.05 57.271 190.481 57.6899L190.093 58.1472C189.677 57.7413 189.118 57.2405 188.417 56.6449C187.744 56.047 187.049 55.4438 186.333 54.8352C185.509 54.136 184.726 53.4833 183.981 52.8771C183.264 52.2685 182.672 51.7918 182.204 51.4468L182.593 50.9895C183.091 51.3604 183.494 51.5972 183.8 51.7C184.106 51.8027 184.414 51.7493 184.723 51.5396C185.033 51.33 185.42 50.9508 185.886 50.402L195.52 39.0611C195.999 38.4971 196.31 38.0531 196.454 37.7293C196.611 37.3901 196.606 37.0713 196.44 36.7726C196.302 36.4717 196.011 36.1194 195.566 35.7158L195.955 35.2585C196.384 35.6492 196.95 36.1564 197.654 36.7802C198.372 37.417 199.143 38.0849 199.966 38.7841C200.683 39.3926 201.391 39.9806 202.089 40.548C202.804 41.1284 203.388 41.5987 203.843 41.9589Z" fill="#FCFAF8"/>
<path d="M218.084 58.293L217.606 58.6561C217.179 58.1269 216.801 57.7613 216.471 57.5595C216.17 57.3614 215.84 57.3236 215.48 57.4459C215.137 57.5561 214.671 57.8351 214.082 58.283L201.758 67.6511C201.328 67.9779 201.026 68.2578 200.852 68.491C200.693 68.712 200.641 68.9403 200.694 69.176C200.764 69.3996 200.925 69.6785 201.18 70.0129L201.779 70.801C202.093 71.215 202.592 71.5397 203.273 71.7753C203.955 72.0109 204.744 72.1398 205.64 72.162C206.548 72.2001 207.479 72.1201 208.434 71.9219C209.405 71.7116 210.327 71.3876 211.2 70.9499L211.618 71.4992C211.008 71.8872 210.257 72.4201 209.366 73.0979C208.952 73.4125 208.353 73.8804 207.569 74.5015C206.801 75.1105 206.025 75.7756 205.242 76.4967C204.656 75.6604 203.976 74.7328 203.202 73.7138C202.443 72.6827 201.761 71.7691 201.156 70.973C200.829 70.5432 200.412 69.9938 199.903 69.3251C199.407 68.6723 198.854 67.9619 198.245 67.1938C197.664 66.4296 197.063 65.6555 196.442 64.8715C195.849 64.0913 195.278 63.357 194.73 62.6685L195.208 62.3054C195.615 62.7748 195.957 63.0926 196.234 63.2588C196.511 63.425 196.823 63.439 197.17 63.3007C197.517 63.1625 197.977 62.8755 198.551 62.4398L210.396 53.4348C210.985 52.9869 211.385 52.6203 211.595 52.335C211.821 52.0375 211.885 51.7251 211.787 51.3977C211.717 51.0741 211.508 50.6675 211.161 50.1777L211.639 49.8146C211.974 50.2885 212.418 50.9056 212.971 51.666C213.536 52.4424 214.145 53.2605 214.799 54.1202C215.404 54.9163 216.005 55.6904 216.602 56.4426C217.199 57.1947 217.693 57.8115 218.084 58.293Z" fill="#FCFAF8"/>
<path d="M230.338 79.7501L229.793 80.002C229.49 79.3932 229.199 78.9549 228.921 78.6869C228.669 78.4288 228.355 78.3208 227.977 78.363C227.618 78.3969 227.103 78.5692 226.432 78.8799L212.382 85.3798C211.892 85.6065 211.537 85.815 211.316 86.0052C211.114 86.1869 211.014 86.3986 211.015 86.6403C211.035 86.8736 211.133 87.1808 211.309 87.562L211.725 88.4605C211.943 88.9324 212.36 89.3567 212.975 89.7333C213.59 90.1098 214.333 90.4053 215.203 90.6196C216.082 90.8521 217.009 90.9742 217.984 90.9858C218.977 90.9891 219.947 90.8709 220.894 90.6312L221.184 91.2574C220.505 91.5053 219.657 91.8643 218.641 92.3346C218.169 92.553 217.484 92.8811 216.584 93.3192C215.703 93.7488 214.803 94.2316 213.883 94.7674C213.491 93.8249 213.026 92.7728 212.489 91.6111C211.969 90.441 211.5 89.4022 211.08 88.4946C210.853 88.0045 210.563 87.3783 210.211 86.6159C209.866 85.8717 209.479 85.0591 209.05 84.178C208.647 83.3068 208.226 82.4215 207.788 81.5224C207.376 80.6329 206.977 79.7931 206.589 79.0028L207.134 78.7509C207.43 79.2968 207.696 79.6807 207.931 79.9026C208.166 80.1245 208.468 80.2052 208.836 80.1448C209.205 80.0844 209.716 79.903 210.37 79.6007L223.874 73.3528C224.546 73.042 225.015 72.7699 225.282 72.5364C225.566 72.2945 225.696 72.0031 225.671 71.6623C225.672 71.3313 225.555 70.8893 225.322 70.3363L225.866 70.0844C226.092 70.6192 226.393 71.3173 226.769 72.1788C227.154 73.0585 227.573 73.9884 228.027 74.9686C228.447 75.8762 228.867 76.7614 229.288 77.6243C229.71 78.4872 230.06 79.1958 230.338 79.7501Z" fill="#FCFAF8"/>
<path d="M239.397 111.083L238.811 111.212C238.565 110.652 238.261 110.248 237.899 110C237.542 109.771 237.04 109.677 236.393 109.717C235.766 109.753 234.896 109.893 233.783 110.138L226.722 111.692C225.511 111.959 224.349 112.122 223.236 112.183C222.127 112.263 221.131 112.155 220.246 111.858C219.295 111.535 218.463 110.92 217.751 110.011C217.043 109.123 216.505 107.839 216.135 106.159C215.937 105.26 215.826 104.291 215.802 103.252C215.778 102.213 215.954 101.243 216.329 100.341C216.671 99.5695 217.155 98.9305 217.781 98.4242C218.406 97.9178 219.175 97.5028 220.087 97.1793C220.999 96.8557 222.05 96.5628 223.242 96.3005L232.442 94.2755C233.164 94.1164 233.681 93.9515 233.991 93.7808C234.322 93.6057 234.513 93.3588 234.566 93.04C234.638 92.7169 234.617 92.2505 234.503 91.6407L235.089 91.5117C235.195 92.0824 235.338 92.829 235.521 93.7513C235.708 94.6932 235.913 95.6719 236.137 96.6876C236.36 97.7033 236.585 98.6778 236.811 99.611C237.037 100.544 237.226 101.312 237.379 101.913L236.793 102.042C236.627 101.382 236.437 100.891 236.223 100.57C236.033 100.264 235.749 100.09 235.372 100.051C235.014 100.007 234.473 100.064 233.751 100.223L221.797 102.854C220.84 103.065 220.046 103.322 219.417 103.624C218.807 103.922 218.338 104.261 218.012 104.64C217.69 105.038 217.491 105.481 217.414 105.969C217.361 106.473 217.401 107.027 217.534 107.632C217.822 108.941 218.361 109.898 219.149 110.502C219.957 111.103 220.962 111.434 222.164 111.498C223.385 111.556 224.747 111.42 226.251 111.089L233.049 109.593C234.357 109.305 235.341 109.027 235.998 108.76C236.68 108.507 237.132 108.141 237.354 107.662C237.576 107.183 237.643 106.462 237.554 105.499L238.14 105.37C238.206 105.765 238.299 106.277 238.417 106.906C238.535 107.536 238.654 108.124 238.774 108.671C238.873 109.12 238.98 109.557 239.094 109.983C239.212 110.428 239.313 110.794 239.397 111.083Z" fill="#FCFAF8"/>
<path d="M240.225 125.719C240.225 127.019 240.095 128.029 239.835 128.749C239.575 129.469 239.305 130.079 239.025 130.579C238.885 130.819 238.775 131.009 238.695 131.149C238.635 131.309 238.605 131.459 238.605 131.599C238.605 131.799 238.715 131.939 238.935 132.019C239.155 132.119 239.485 132.199 239.925 132.259L239.925 132.949C239.505 132.929 239.015 132.899 238.455 132.859C237.895 132.839 237.155 132.819 236.235 132.799C235.315 132.799 234.105 132.799 232.605 132.799L232.605 132.109C233.705 132.029 234.775 131.769 235.815 131.329C236.855 130.909 237.715 130.319 238.395 129.559C239.075 128.819 239.415 127.929 239.415 126.889C239.415 126.009 239.175 125.279 238.695 124.699C238.215 124.119 237.525 123.829 236.625 123.829C235.885 123.829 235.245 124.009 234.705 124.369C234.185 124.729 233.635 125.289 233.055 126.049C232.475 126.829 231.745 127.849 230.865 129.109C230.245 130.009 229.625 130.819 229.005 131.539C228.385 132.279 227.685 132.869 226.905 133.309C226.125 133.749 225.185 133.969 224.085 133.969C222.745 133.969 221.635 133.589 220.755 132.829C219.875 132.089 219.215 131.099 218.775 129.859C218.355 128.619 218.145 127.269 218.145 125.809C218.145 124.449 218.265 123.359 218.505 122.539C218.745 121.739 218.995 121.059 219.255 120.499C219.535 120.059 219.675 119.719 219.675 119.479C219.675 119.279 219.565 119.129 219.345 119.029C219.125 118.949 218.795 118.879 218.355 118.819L218.355 118.129C218.875 118.169 219.475 118.189 220.155 118.189C220.855 118.209 221.755 118.219 222.855 118.219C223.955 118.239 225.355 118.249 227.055 118.249L227.055 118.939C225.655 119.019 224.345 119.239 223.125 119.599C221.905 119.979 220.915 120.549 220.155 121.309C219.415 122.089 219.045 123.119 219.045 124.399C219.045 125.139 219.155 125.769 219.375 126.289C219.615 126.829 219.955 127.249 220.395 127.549C220.835 127.849 221.365 127.999 221.985 127.999C222.825 127.999 223.555 127.809 224.175 127.429C224.815 127.049 225.405 126.529 225.945 125.869C226.505 125.229 227.065 124.479 227.625 123.619C228.265 122.679 228.905 121.799 229.545 120.979C230.185 120.159 230.905 119.499 231.705 118.999C232.505 118.519 233.455 118.279 234.555 118.279C235.875 118.279 236.945 118.629 237.765 119.329C238.605 120.029 239.225 120.949 239.625 122.089C240.025 123.229 240.225 124.439 240.225 125.719Z" fill="#FCFAF8"/>
<path d="M234.921 159.967C233.786 159.636 232.686 159.332 231.62 159.056C230.55 158.8 229.732 158.61 229.165 158.485C228.755 158.395 228.362 158.319 227.987 158.257C227.612 158.195 227.295 158.145 227.037 158.109L227.185 157.435C229.12 157.39 230.686 157.161 231.882 156.749C233.075 156.356 233.965 155.845 234.554 155.217C235.158 154.613 235.537 153.959 235.692 153.256L235.699 153.227L218.94 149.538C218.139 149.362 217.526 149.309 217.101 149.379C216.672 149.469 216.347 149.735 216.126 150.178C215.906 150.621 215.697 151.292 215.499 152.19L214.913 152.061C215.083 151.382 215.307 150.459 215.584 149.291C215.858 148.143 216.134 146.934 216.413 145.664C216.68 144.453 216.922 143.308 217.139 142.23C217.356 141.151 217.527 140.278 217.654 139.609L218.24 139.738C218.042 140.637 217.95 141.333 217.964 141.828C217.978 142.323 218.164 142.691 218.52 142.933C218.872 143.195 219.448 143.414 220.249 143.59L237.008 147.279L237.014 147.25C237.169 146.547 237.101 145.784 236.811 144.963C236.536 144.165 235.94 143.338 235.023 142.48C234.125 141.627 232.8 140.762 231.048 139.885L231.196 139.211C231.442 139.306 231.75 139.395 232.121 139.476C232.488 139.577 232.876 139.673 233.286 139.764C233.853 139.888 234.678 140.049 235.76 140.247C236.839 140.464 237.963 140.66 239.133 140.835C238.907 141.769 238.659 142.8 238.39 143.928C238.122 145.057 237.862 146.187 237.613 147.32C237.364 148.453 237.138 149.479 236.936 150.397C236.734 151.315 236.508 152.34 236.259 153.473C236.009 154.606 235.77 155.741 235.54 156.878C235.31 158.015 235.104 159.045 234.921 159.967Z" fill="#FCFAF8"/>
<path d="M233.433 164.277C233.171 164.795 232.834 165.476 232.421 166.321C232 167.184 231.587 168.051 231.184 168.922C230.764 169.83 230.37 170.705 230.002 171.549C229.634 172.392 229.37 172.986 229.211 173.331C228.354 175.183 227.476 176.628 226.577 177.666C225.67 178.723 224.723 179.387 223.738 179.658C222.771 179.938 221.753 179.83 220.682 179.335C220.01 179.024 219.419 178.586 218.91 178.019C218.401 177.453 218.034 176.722 217.81 175.825C217.604 174.936 217.611 173.849 217.832 172.562C218.062 171.303 218.58 169.801 219.387 168.059L220.596 165.445L221.14 165.697L220.057 168.039C219.629 168.964 219.505 169.755 219.686 170.412C219.877 171.095 220.27 171.674 220.866 172.148C221.472 172.649 222.192 173.092 223.027 173.479C224.461 174.142 225.661 174.455 226.626 174.416C227.601 174.405 228.311 173.918 228.756 172.956C229.042 172.339 229.072 171.868 228.848 171.544C228.623 171.219 228.039 170.839 227.095 170.402L213.59 164.154C212.937 163.852 212.426 163.671 212.057 163.61C211.68 163.568 211.374 163.658 211.139 163.88C210.904 164.101 210.643 164.476 210.354 165.004L209.81 164.752C210.09 164.243 210.423 163.57 210.809 162.735C211.205 161.927 211.601 161.096 211.995 160.243C212.449 159.263 212.868 158.333 213.253 157.453C213.648 156.6 213.948 155.902 214.156 155.359L214.7 155.611C214.476 156.19 214.356 156.641 214.339 156.964C214.322 157.287 214.455 157.569 214.74 157.811C215.025 158.053 215.494 158.325 216.147 158.627L229.652 164.875C230.324 165.186 230.835 165.367 231.185 165.419C231.554 165.48 231.86 165.39 232.103 165.15C232.356 164.936 232.618 164.561 232.888 164.025L233.433 164.277ZM221.134 165.496C220.814 166.141 220.492 166.741 220.169 167.297C219.846 167.853 219.543 168.363 219.262 168.828C218.999 169.301 218.779 169.706 218.601 170.042C217.612 171.943 216.604 173.239 215.578 173.933C214.544 174.644 213.414 174.848 212.187 174.546L209.091 173.807C208.352 173.642 207.814 173.591 207.476 173.655C207.138 173.719 206.897 173.905 206.755 174.214C206.671 174.395 206.627 174.562 206.622 174.714C206.618 174.867 206.65 175.036 206.718 175.222L206.2 175.412C205.898 174.589 205.802 173.795 205.913 173.031C205.998 172.277 206.233 171.482 206.62 170.647C207.165 169.468 207.815 168.611 208.569 168.078C209.34 167.554 210.317 167.466 211.5 167.815L214.412 168.666C215.206 168.902 215.932 169.072 216.588 169.177C217.245 169.283 217.799 169.275 218.252 169.154C218.723 169.041 219.067 168.749 219.286 168.277L220.646 165.336L221.134 165.496Z" fill="#FCFAF8"/>
<path d="M215.267 196.129L195.971 190.579C195.26 190.391 194.688 190.333 194.256 190.406C193.839 190.492 193.544 190.632 193.371 190.827L192.893 190.463C193.361 189.914 193.885 189.258 194.466 188.494C195.063 187.741 195.664 186.967 196.269 186.171C196.887 185.359 197.46 184.589 197.988 183.86C198.533 183.144 198.953 182.559 199.248 182.104L199.725 182.468C199.14 183.304 198.888 183.916 198.969 184.305C199.055 184.721 199.624 185.079 200.679 185.378L214.163 189.599L214.636 190.712L208.568 180.899C207.835 179.714 207.187 178.832 206.623 178.252C206.062 177.701 205.555 177.377 205.099 177.282C204.644 177.187 204.219 177.267 203.826 177.52C203.432 177.773 203.046 178.133 202.667 178.599L202.189 178.235C202.669 177.671 203.09 177.149 203.453 176.672C203.82 176.222 204.215 175.718 204.639 175.161C204.869 174.859 205.109 174.526 205.359 174.164C205.614 173.83 205.815 173.531 205.965 173.268L206.443 173.631C206.228 174.046 206.187 174.579 206.318 175.232C206.454 175.913 206.87 176.82 207.567 177.952L217.173 193.621C216.851 193.979 216.521 194.381 216.182 194.826C215.831 195.288 215.526 195.722 215.267 196.129ZM204.601 189.339L204.123 188.976L209.534 181.859L209.83 182.461L204.601 189.339Z" fill="#FCFAF8"/>
<path d="M191.678 219.09C190.975 218.139 190.283 217.231 189.601 216.367C188.904 215.516 188.368 214.869 187.993 214.427C187.721 214.107 187.454 213.809 187.193 213.532C186.932 213.255 186.709 213.024 186.526 212.839L187.052 212.392C188.619 213.527 190.004 214.293 191.206 214.689C192.393 215.098 193.411 215.23 194.26 215.086C195.107 214.971 195.804 214.68 196.353 214.214L196.376 214.195L185.267 201.116C184.736 200.491 184.28 200.078 183.899 199.876C183.503 199.688 183.083 199.704 182.64 199.923C182.196 200.142 181.624 200.55 180.923 201.145L180.534 200.688C181.081 200.25 181.818 199.65 182.745 198.889C183.658 198.14 184.609 197.345 185.6 196.503C186.545 195.7 187.43 194.935 188.256 194.208C189.081 193.481 189.746 192.889 190.252 192.434L190.64 192.891C189.939 193.487 189.444 193.985 189.156 194.388C188.868 194.79 188.793 195.195 188.93 195.604C189.051 196.025 189.378 196.548 189.908 197.173L201.018 210.252L201.04 210.233C201.589 209.766 201.997 209.118 202.263 208.289C202.527 207.487 202.553 206.468 202.342 205.23C202.143 204.008 201.612 202.518 200.748 200.759L201.274 200.312C201.411 200.536 201.603 200.793 201.849 201.083C202.08 201.385 202.331 201.697 202.603 202.017C202.979 202.459 203.538 203.086 204.281 203.898C205.008 204.724 205.784 205.56 206.609 206.408C205.864 207.014 205.043 207.685 204.146 208.421C203.249 209.157 202.359 209.9 201.475 210.651C200.591 211.402 199.79 212.082 199.074 212.69C198.357 213.299 197.557 213.979 196.673 214.729C195.789 215.48 194.911 216.239 194.04 217.005C193.169 217.771 192.382 218.466 191.678 219.09Z" fill="#FCFAF8"/>
<path d="M178.819 226.902C176.823 227.96 174.872 228.508 172.967 228.544C171.062 228.581 169.315 228.104 167.726 227.113C166.146 226.139 164.817 224.637 163.74 222.605C162.691 220.626 162.197 218.669 162.258 216.735C162.319 214.801 162.889 213.016 163.969 211.38C165.03 209.753 166.542 208.42 168.503 207.38C170.5 206.321 172.451 205.774 174.356 205.737C176.261 205.701 178.008 206.178 179.597 207.169C181.186 208.16 182.515 209.663 183.583 211.677C184.632 213.656 185.126 215.613 185.065 217.547C184.986 219.49 184.416 221.275 183.354 222.902C182.292 224.529 180.781 225.862 178.819 226.902ZM178.672 226.369C179.556 225.9 180.114 225.095 180.346 223.953C180.578 222.811 180.501 221.449 180.114 219.866C179.728 218.282 179.047 216.572 178.073 214.734C177.08 212.861 176.01 211.334 174.864 210.154C173.727 208.991 172.612 208.212 171.52 207.818C170.437 207.441 169.481 207.473 168.65 207.913C167.767 208.382 167.209 209.187 166.977 210.328C166.744 211.47 166.822 212.833 167.208 214.416C167.604 216.017 168.285 217.728 169.25 219.548C170.252 221.438 171.322 222.965 172.459 224.128C173.596 225.291 174.706 226.061 175.789 226.437C176.881 226.832 177.842 226.809 178.672 226.369Z" fill="#FCFAF8"/>
<path d="M165.734 232.766C165.17 232.902 164.432 233.086 163.521 233.319C162.591 233.556 161.663 233.803 160.738 234.06C159.775 234.328 158.852 234.594 157.971 234.86C157.09 235.125 156.466 235.309 156.1 235.41C154.135 235.956 152.465 236.222 151.092 236.209C149.699 236.202 148.58 235.91 147.735 235.335C146.896 234.78 146.319 233.933 146.003 232.796C145.805 232.083 145.757 231.349 145.859 230.595C145.961 229.84 146.281 229.087 146.819 228.335C147.363 227.603 148.197 226.905 149.32 226.24C150.429 225.6 151.909 225.023 153.759 224.509L156.534 223.739L156.694 224.317L154.208 225.007C153.225 225.28 152.542 225.698 152.159 226.261C151.762 226.849 151.575 227.523 151.6 228.284C151.611 229.07 151.739 229.906 151.985 230.793C152.408 232.315 152.946 233.432 153.6 234.143C154.24 234.878 155.071 235.104 156.092 234.821C156.748 234.639 157.126 234.357 157.228 233.976C157.33 233.595 157.241 232.904 156.963 231.901L152.982 217.564C152.79 216.87 152.597 216.363 152.404 216.043C152.192 215.728 151.926 215.553 151.605 215.518C151.284 215.482 150.829 215.526 150.24 215.648L150.079 215.07C150.649 214.953 151.377 214.772 152.263 214.525C153.136 214.304 154.025 214.067 154.931 213.816C155.971 213.527 156.951 213.245 157.871 212.968C158.777 212.717 159.504 212.494 160.052 212.301L160.212 212.879C159.626 213.083 159.204 213.283 158.947 213.479C158.69 213.675 158.561 213.96 158.561 214.334C158.561 214.707 158.658 215.241 158.85 215.935L162.831 230.272C163.029 230.985 163.222 231.492 163.409 231.793C163.602 232.113 163.868 232.288 164.209 232.318C164.535 232.373 164.99 232.33 165.574 232.188L165.734 232.766ZM156.844 224.182C156.144 224.355 155.479 224.499 154.846 224.612C154.213 224.726 153.629 224.826 153.092 224.912C152.561 225.018 152.11 225.112 151.738 225.195C149.65 225.671 148.009 225.742 146.816 225.409C145.605 225.082 144.717 224.352 144.154 223.222L142.712 220.384C142.36 219.714 142.05 219.271 141.783 219.054C141.515 218.838 141.218 218.775 140.89 218.866C140.697 218.92 140.541 218.994 140.423 219.09C140.304 219.185 140.196 219.319 140.098 219.491L139.618 219.22C140.05 218.456 140.592 217.87 141.247 217.46C141.876 217.036 142.634 216.701 143.521 216.455C144.773 216.107 145.847 216.048 146.74 216.277C147.64 216.525 148.339 217.213 148.839 218.341L150.075 221.111C150.41 221.869 150.75 222.532 151.095 223.101C151.439 223.669 151.804 224.087 152.19 224.353C152.581 224.639 153.026 224.713 153.527 224.574L156.649 223.707L156.844 224.182Z" fill="#FCFAF8"/>
<path d="M105.055 237.761L100.92 218.113C100.753 217.396 100.537 216.864 100.269 216.517C99.9989 216.188 99.737 215.993 99.4836 215.932L99.5807 215.34C100.285 215.496 101.11 215.651 102.058 215.806C103.002 215.982 103.967 216.15 104.954 216.312C105.961 216.477 106.91 216.622 107.801 216.748C108.689 216.894 109.403 216.99 109.942 217.038L109.845 217.63C108.832 217.505 108.173 217.569 107.868 217.823C107.54 218.094 107.491 218.764 107.721 219.836L110.307 233.727L109.545 234.666L115.373 224.708C116.077 223.506 116.553 222.52 116.8 221.75C117.025 220.996 117.073 220.396 116.944 219.949C116.814 219.503 116.545 219.165 116.137 218.935C115.729 218.706 115.23 218.533 114.641 218.417L114.738 217.825C115.462 217.984 116.12 218.112 116.712 218.209C117.281 218.323 117.911 218.436 118.602 218.549C118.977 218.611 119.383 218.667 119.821 218.719C120.235 218.787 120.594 218.825 120.896 218.834L120.799 219.426C120.332 219.431 119.841 219.644 119.326 220.066C118.788 220.505 118.182 221.297 117.508 222.443L108.164 238.27C107.697 238.153 107.187 238.049 106.634 237.959C106.062 237.865 105.536 237.799 105.055 237.761ZM106.058 225.157L106.155 224.565L114.977 226.011L114.584 226.555L106.058 225.157Z" fill="#FCFAF8"/>
<path d="M92.5425 235.175C92.0111 234.942 91.3125 234.642 90.4466 234.275C89.5622 233.901 88.6741 233.537 87.7823 233.181C86.8533 232.811 85.9578 232.465 85.0957 232.143C84.2337 231.821 83.6261 231.59 83.2731 231.449C81.378 230.694 79.8877 229.896 78.8021 229.054C77.6979 228.205 76.9836 227.296 76.6592 226.328C76.3274 225.377 76.3798 224.354 76.8166 223.258C77.0905 222.57 77.4963 221.957 78.0341 221.418C78.5719 220.879 79.2826 220.473 80.1661 220.2C81.0423 219.947 82.1285 219.895 83.4249 220.046C84.6953 220.207 86.2223 220.643 88.0059 221.354L90.6813 222.42L90.4593 222.978L88.0625 222.023C87.115 221.645 86.3182 221.564 85.6723 221.781C85.0004 222.008 84.4439 222.432 84.0027 223.053C83.5356 223.685 83.1318 224.428 82.7913 225.283C82.2065 226.751 81.9593 227.966 82.0497 228.927C82.1142 229.9 82.6387 230.583 83.6235 230.975C84.2552 231.227 84.7268 231.232 85.0385 230.99C85.3501 230.748 85.6984 230.144 86.0834 229.178L91.591 215.355C91.8575 214.686 92.0109 214.166 92.0513 213.795C92.0731 213.416 91.9668 213.115 91.7325 212.893C91.4983 212.67 91.1098 212.429 90.5673 212.17L90.7893 211.613C91.3133 211.864 92.0027 212.161 92.8573 212.501C93.686 212.853 94.537 213.203 95.4102 213.551C96.4135 213.95 97.3647 214.319 98.264 214.655C99.1372 215.003 99.8506 215.266 100.404 215.443L100.182 216.001C99.5914 215.809 99.1344 215.713 98.8113 215.713C98.4882 215.713 98.2136 215.862 97.9875 216.16C97.7613 216.457 97.515 216.94 97.2485 217.609L91.7408 231.432C91.4669 232.12 91.3135 232.64 91.2805 232.993C91.2402 233.364 91.3464 233.665 91.5993 233.895C91.8262 234.136 92.2146 234.377 92.7646 234.618L92.5425 235.175ZM90.6598 222.961C89.9983 222.675 89.3814 222.387 88.8091 222.094C88.2368 221.801 87.7109 221.527 87.2314 221.272C86.7446 221.035 86.3284 220.836 85.9828 220.677C84.0318 219.792 82.6824 218.856 81.9345 217.869C81.1681 216.875 80.9029 215.758 81.1389 214.517L81.7085 211.385C81.8338 210.639 81.8553 210.098 81.7732 209.764C81.691 209.43 81.492 209.2 81.1762 209.074C80.9904 209 80.8213 208.965 80.6691 208.969C80.5168 208.973 80.3497 209.014 80.1679 209.092L79.9499 208.585C80.7554 208.239 81.5425 208.101 82.3114 208.17C83.0691 208.214 83.8753 208.406 84.7299 208.746C85.9376 209.227 86.8279 209.83 87.4008 210.553C87.9663 211.295 88.1069 212.266 87.8226 213.466L87.1302 216.42C86.9382 217.226 86.8073 217.959 86.7376 218.621C86.668 219.282 86.7058 219.835 86.8513 220.281C86.9893 220.745 87.2999 221.073 87.7829 221.265L90.7928 222.465L90.6598 222.961Z" fill="#FCFAF8"/>
<path d="M52.9363 214.138C53.6647 213.206 54.3542 212.296 55.0046 211.408C55.6384 210.509 56.1181 209.819 56.4436 209.339C56.6793 208.992 56.8955 208.655 57.0922 208.329C57.2889 208.003 57.4519 207.727 57.5813 207.501L58.1524 207.888C57.4781 209.702 57.111 211.241 57.0512 212.506C56.9749 213.759 57.1195 214.775 57.485 215.555C57.8228 216.339 58.2897 216.934 58.8856 217.338L58.9105 217.355L68.5404 203.152C69.0006 202.473 69.2767 201.923 69.3688 201.502C69.4442 201.07 69.317 200.67 68.9871 200.301C68.6571 199.932 68.1114 199.49 67.3499 198.974L67.6866 198.477C68.2548 198.886 69.0299 199.436 70.0119 200.126C70.9773 200.805 71.9981 201.509 73.0741 202.238C74.1004 202.934 75.0744 203.583 75.9961 204.183C76.9178 204.784 77.6656 205.267 78.2397 205.632L77.903 206.129C77.1415 205.612 76.5284 205.269 76.0638 205.099C75.5992 204.929 75.1884 204.965 74.8315 205.206C74.458 205.436 74.0412 205.89 73.581 206.569L63.9511 220.772L63.9759 220.789C64.5718 221.193 65.3051 221.412 66.1758 221.447C67.0186 221.487 68.008 221.239 69.1438 220.705C70.2683 220.187 71.5624 219.276 73.0259 217.973L73.5971 218.36C73.418 218.553 73.2219 218.806 73.0087 219.121C72.7788 219.424 72.5461 219.749 72.3104 220.097C71.9849 220.577 71.5301 221.284 70.9459 222.217C70.3451 223.138 69.7467 224.11 69.1508 225.131C68.3674 224.576 67.5013 223.965 66.5524 223.297C65.6035 222.63 64.649 221.97 63.6889 221.319C62.7287 220.668 61.8597 220.079 61.0816 219.552C60.3036 219.024 59.4345 218.435 58.4744 217.784C57.5143 217.133 56.5486 216.49 55.5772 215.856C54.6059 215.221 53.7256 214.649 52.9363 214.138Z" fill="#FCFAF8"/>
<path d="M38.728 199.805L39.1636 199.392C39.5908 199.814 39.9652 200.093 40.2869 200.229C40.5803 200.364 40.8921 200.345 41.2222 200.17C41.5379 200.008 41.9643 199.673 42.5015 199.164L53.3043 188.931C53.827 188.436 54.1847 188.029 54.3773 187.708C54.5561 187.374 54.5859 187.056 54.4667 186.756C54.3476 186.456 54.0962 186.074 53.7126 185.611L54.1482 185.198C54.518 185.647 55.0193 186.205 55.652 186.873C56.2564 187.54 56.8818 188.215 57.5282 188.897C58.2709 189.681 58.9797 190.415 59.6544 191.098C60.3008 191.781 60.838 192.319 61.2659 192.712L60.8303 193.125C60.3749 192.702 60.0004 192.423 59.707 192.288C59.4136 192.153 59.1018 192.173 58.7717 192.348C58.4416 192.523 58.0151 192.858 57.4924 193.353L46.6896 203.586C46.1524 204.095 45.7947 204.502 45.6166 204.809C45.4241 205.129 45.3942 205.446 45.5272 205.761C45.6318 206.075 45.8832 206.457 46.2813 206.906L45.8457 207.319C45.4614 206.884 44.9533 206.319 44.3213 205.622C43.6757 204.912 42.9815 204.164 42.2388 203.38C41.5923 202.698 40.9524 202.037 40.3189 201.397C39.6717 200.743 39.1414 200.212 38.728 199.805Z" fill="#FCFAF8"/>
<path d="M28.2461 184.075C27.5759 182.961 27.1665 182.029 27.0181 181.278C26.8697 180.527 26.7866 179.865 26.7687 179.292C26.7649 179.014 26.7612 178.795 26.7576 178.634C26.7265 178.466 26.6749 178.322 26.6027 178.202C26.4996 178.03 26.3332 177.967 26.1034 178.012C25.8634 178.04 25.5394 178.141 25.1314 178.317L24.7757 177.725C25.1459 177.526 25.5812 177.299 26.0817 177.045C26.5718 176.773 27.2162 176.409 28.0148 175.952C28.8031 175.477 29.8399 174.853 31.1252 174.08L31.4809 174.671C30.5796 175.307 29.7969 176.081 29.1326 176.995C28.458 177.891 28.0252 178.84 27.8344 179.841C27.6332 180.826 27.8008 181.764 28.3369 182.655C28.7906 183.409 29.3726 183.911 30.0829 184.16C30.7932 184.41 31.534 184.303 32.3052 183.839C32.9392 183.457 33.3948 182.973 33.6719 182.386C33.9319 181.809 34.1145 181.046 34.2196 180.096C34.3145 179.128 34.4141 177.878 34.5185 176.345C34.5858 175.254 34.6994 174.24 34.8595 173.304C35.0092 172.35 35.3049 171.484 35.7464 170.704C36.1879 169.925 36.8799 169.252 37.8224 168.685C38.9706 167.994 40.1176 167.748 41.2635 167.945C42.399 168.125 43.475 168.633 44.4913 169.469C45.4904 170.315 46.3664 171.364 47.1191 172.615C47.8202 173.78 48.2794 174.776 48.4965 175.602C48.7033 176.411 48.8396 177.123 48.9056 177.737C48.8925 178.258 48.9478 178.622 49.0716 178.827C49.1747 178.999 49.3462 179.07 49.5863 179.043C49.8161 178.998 50.1349 178.888 50.5429 178.712L50.8986 179.304C50.4324 179.537 49.908 179.83 49.3253 180.18C48.7152 180.524 47.9389 180.979 46.9963 181.546C46.0435 182.096 44.8387 182.81 43.3821 183.686L43.0263 183.095C44.1847 182.304 45.1938 181.441 46.0535 180.503C46.903 179.549 47.4574 178.55 47.7168 177.507C47.9487 176.457 47.7348 175.384 47.0748 174.287C46.6933 173.653 46.2743 173.17 45.8177 172.837C45.3336 172.498 44.8258 172.314 44.2941 172.284C43.7624 172.253 43.2309 172.398 42.6997 172.718C41.9799 173.151 41.4524 173.69 41.117 174.335C40.7646 174.991 40.5271 175.741 40.4047 176.585C40.2548 177.422 40.1616 178.353 40.1251 179.379C40.0614 180.514 39.9667 181.598 39.841 182.631C39.7154 183.663 39.4387 184.6 39.011 185.441C38.573 186.264 37.8827 186.96 36.9402 187.527C35.8091 188.208 34.7118 188.459 33.6483 188.282C32.5677 188.115 31.5621 187.647 30.6317 186.876C29.7012 186.106 28.906 185.172 28.2461 184.075Z" fill="#FCFAF8"/>
<path d="M15.1259 152.237C16.2697 151.936 17.3692 151.628 18.4244 151.315C19.4732 150.983 20.2724 150.724 20.822 150.539C21.2201 150.405 21.5959 150.268 21.9497 150.127C22.3034 149.987 22.6002 149.866 22.8402 149.764L23.0606 150.418C21.4259 151.454 20.2021 152.457 19.3894 153.428C18.5703 154.379 18.0704 155.275 17.8897 156.117C17.6837 156.946 17.6956 157.702 17.9255 158.384L17.9351 158.413L34.1968 152.934C34.9739 152.672 35.5264 152.401 35.8544 152.122C36.176 151.824 36.317 151.428 36.2775 150.935C36.2379 150.441 36.0713 149.759 35.7775 148.887L36.3461 148.696C36.5507 149.365 36.835 150.272 37.1993 151.415C37.5571 152.54 37.9435 153.718 38.3586 154.95C38.7546 156.125 39.1376 157.231 39.5078 158.267C39.878 159.303 40.1811 160.14 40.4172 160.778L39.8486 160.97C39.5548 160.098 39.2745 159.454 39.0075 159.037C38.7405 158.621 38.3919 158.4 37.9618 158.376C37.5253 158.334 36.9185 158.443 36.1414 158.705L19.8796 164.184L19.8892 164.212C20.1191 164.895 20.5702 165.513 21.2424 166.068C21.8892 166.609 22.8266 167.011 24.0544 167.273C25.2633 167.541 26.8446 167.599 28.7984 167.447L29.0187 168.101C28.7596 168.146 28.4499 168.229 28.0898 168.351C27.7233 168.453 27.3411 168.571 26.9431 168.705C26.3934 168.891 25.6038 169.178 24.5741 169.567C23.5381 169.937 22.4737 170.348 21.3811 170.801C21.0935 169.885 20.774 168.874 20.4225 167.768C20.0711 166.663 19.7102 165.56 19.3398 164.461C18.9694 163.362 18.6341 162.367 18.334 161.476C18.0339 160.585 17.6986 159.59 17.3282 158.491C16.9578 157.391 16.5779 156.295 16.1886 155.202C15.7993 154.11 15.445 153.121 15.1259 152.237Z" fill="#FCFAF8"/>
</svg>
