<svg width="42" height="42" viewBox="0 0 42 42" fill="none" xmlns="http://www.w3.org/2000/svg">
<g clip-path="url(#clip0_56_32)">
<path d="M0 0.000488281H42V42.0003H0V0.000488281Z" fill="#ED5B2B"/>
<path d="M20.1666 15.5533H22.1813V19.0314H16.7344V34.5058L16.59 34.5452C16.3932 34.5977 13.801 34.5977 13.2432 34.5386L12.7969 34.4992V19.0314H7.35001V15.5533L9.07595 15.5336C10.021 15.5205 12.4491 15.5205 14.4704 15.5336C16.4916 15.5467 19.051 15.5533 20.1666 15.5533ZM35.5425 32.8652C34.7419 33.7117 33.8822 34.1842 32.4516 34.5714C31.8282 34.742 31.7232 34.7486 30.3188 34.742C28.9144 34.7355 28.8029 34.7355 28.1204 34.5583C26.355 34.1055 24.931 33.2195 23.9597 31.9661C23.6841 31.6117 23.2313 30.8767 23.2313 30.7849C23.2313 30.7586 23.2969 30.6995 23.3822 30.6602C23.4676 30.6208 23.6447 30.5092 23.7891 30.4239C23.9335 30.3386 24.196 30.1811 24.3732 30.0892C24.5504 29.9974 25.0622 29.6955 25.5085 29.4264C25.9547 29.1574 26.3616 28.9408 26.4075 28.9408C26.4535 28.9408 26.5388 29.0327 26.6044 29.1442C26.9982 29.807 27.9169 30.6536 28.5666 30.9424C28.9669 31.113 29.8529 31.3033 30.2794 31.3033C30.6732 31.3033 31.395 31.1327 31.7822 30.9555C32.1957 30.7652 32.4057 30.5749 32.655 30.1942C32.8257 29.9252 32.8454 29.853 32.8388 29.3411C32.8388 28.8686 32.8125 28.7374 32.6813 28.5208C32.3138 27.917 31.815 27.602 29.7938 26.7095C27.7069 25.7842 26.7685 25.233 26.0072 24.4914C25.4429 23.9402 25.3313 23.7892 24.9769 23.1002C24.5175 22.2142 24.4585 21.9255 24.4519 20.6064C24.4454 19.6811 24.465 19.3792 24.5635 19.0642C24.7013 18.5917 25.1475 17.6795 25.351 17.4499C25.771 16.9577 25.9219 16.8067 26.2172 16.5639C27.1097 15.8289 28.501 15.3433 29.8332 15.2974C29.9841 15.2974 30.4829 15.3236 30.9488 15.3564C32.2875 15.468 33.1997 15.7961 34.0791 16.4983C34.7419 17.0233 35.746 18.257 35.6475 18.4211C35.5819 18.5195 32.9635 20.2652 32.7929 20.3177C32.6879 20.3505 32.6157 20.3111 32.4713 20.1405C31.5788 19.0708 31.2179 18.8411 30.3516 18.7886C29.7347 18.7492 29.4066 18.8214 28.9932 19.097C28.5601 19.3858 28.35 19.8255 28.35 20.4358C28.3566 21.3283 28.6979 21.7483 29.9579 22.3717C30.7716 22.772 31.4672 23.1002 31.5197 23.1002C31.5985 23.1002 33.285 23.9402 33.7247 24.2027C35.7722 25.4036 36.6057 26.6374 36.8222 28.7636C36.9797 30.3649 36.5269 31.8283 35.5425 32.8652Z" fill="#1B1B1B"/>
</g>
<defs>
<clipPath id="clip0_56_32">
<rect width="42" height="42" rx="3" fill="white"/>
</clipPath>
</defs>
</svg>
