<svg width="19" height="18" viewBox="0 0 19 18" fill="none" xmlns="http://www.w3.org/2000/svg">
<path d="M1.26724 15.4654C0.779084 15.9535 0.779084 16.745 1.26724 17.2331C1.75539 17.7213 2.54685 17.7213 3.03501 17.2331L1.26724 15.4654ZM18.2504 1.5C18.2504 0.809645 17.6907 0.250001 17.0004 0.250001H5.75037C5.06001 0.250001 4.50037 0.809645 4.50037 1.5C4.50037 2.19036 5.06001 2.75 5.75037 2.75H15.7504V12.75C15.7504 13.4404 16.31 14 17.0004 14C17.6907 14 18.2504 13.4404 18.2504 12.75V1.5ZM3.03501 17.2331L17.8842 2.38388L16.1165 0.616118L1.26724 15.4654L3.03501 17.2331Z" fill="white"/>
</svg>
