<svg width="40" height="48" viewBox="0 0 40 48" fill="none" xmlns="http://www.w3.org/2000/svg">
<path d="M19.49 0.790039C20.31 5.55004 21.35 10.34 22.84 14.92C23.23 16.02 23.81 16.97 24.78 17.35C25.75 17.76 27.03 17.88 28.21 18.1C30.95 18.58 37.18 19.68 39.87 20.15C36.21 20.73 31.91 21.37 28.42 22.48C26.26 23.12 24.56 24.2 24.36 26.6C23.56 33.25 23.93 40.67 24.34 47.39C22.58 42.64 20 35.71 18.26 30.97C16.3 23.83 9.94002 24.97 3.93002 24.23L0.640015 23.72C5.23001 22.25 9.97002 20.55 14.19 18.23C16.68 17.01 16.77 14.49 17.26 12.04C17.96 8.46004 18.9 4.24003 19.49 0.780029V0.790039ZM19.49 0.790039C18.89 4.60004 18.5 8.49002 18.03 12.21C17.64 17.83 16.26 18.7 11.41 21.12C9.11002 22.28 6.73001 23.3 4.31001 24.19L4.16002 22.65C10.79 23.09 17.72 22.34 20.08 30.3C20.91 32.5 23.09 38.3 23.94 40.56L22.01 40.96C21.9 38.52 21.88 36.09 21.95 33.65C22.18 30.57 21.97 27.35 23.07 24.35C23.89 22.4 26.1 21.32 27.92 20.82C30.3 20.14 32.7 19.67 35.13 19.35L35.11 20.88L27.95 19.36C25.26 18.86 22.68 18.36 21.93 15.21C20.71 10.45 19.9 5.66003 19.5 0.780029L19.49 0.790039Z" fill="#FCFAF8"/>
<path d="M11.91 12.5901C12.03 10.9101 11.4 9.33009 10.49 7.95009C9.80999 6.92009 8.94 6.05007 7.76 6.00007C8.06 6.02007 8 5.80006 7.97 6.11006C8.16 6.66006 8.92999 7.25007 9.24999 7.90007C9.92999 9.03007 10.04 10.4101 10.56 11.5201C10.84 12.2401 11.57 13.0401 11.77 13.6801C11.91 13.3401 11.9 12.9501 11.92 12.5801L11.91 12.5901ZM11.91 12.5901C11.91 12.9801 11.91 13.3801 11.8 13.7601C10.79 12.4601 9.46999 11.1601 8.66999 9.73009C8.18999 9.04009 7.79 8.65006 7.12 8.11006C6.13 7.41006 5.50999 5.71008 6.51999 4.63008C6.95999 4.02008 8.03999 3.94008 8.69999 4.26008C11.72 5.54008 11.93 9.81007 11.92 12.5901H11.91Z" fill="#FCFAF8"/>
<path d="M29.68 7.73006C30.47 6.32006 32.05 4.71005 33.82 5.57005C34.87 6.11005 35.21 7.70004 34.33 8.59004C34.14 8.76004 31.32 11.14 31.04 11.38C30.14 12.18 28.96 13.51 27.38 14.03L27.14 13.74C26.78 13.31 26.8 12.8601 26.85 12.5401C27.35 10.7001 28.74 9.33003 29.68 7.74003V7.73006ZM29.68 7.73006C28.79 9.18006 27.82 10.85 27.85 12.59C27.87 12.79 27.98 12.88 27.98 12.83L27.28 12.7301C28.08 12.0901 28.66 10.9301 29.69 9.92006C30.78 8.88006 32.17 8.00003 33.45 7.36003C33.87 6.79003 33.35 5.97006 32.65 5.89006C31.38 5.61006 30.28 6.71006 29.66 7.73006H29.68Z" fill="#FCFAF8"/>
<path d="M32.6401 28.72C34.5001 29.24 36.3501 30.16 37.2401 32.02C37.9101 33.49 38.5601 35.15 37.7701 36.78C35.3601 40.12 32.6401 35.18 31.5001 33.15C30.4401 31.42 30.2301 29.12 28.6901 27.76C30.0801 27.78 31.3601 28.28 32.6401 28.73V28.72ZM32.6401 28.72C31.5201 28.34 30.3101 27.99 29.1201 28.11L29.2201 27.81C30.0701 28.36 30.6301 29.26 31.1701 30.02C32.2501 31.54 33.4301 32.98 34.6001 34.41C35.1201 35.06 35.9701 36.08 35.9701 35.98C35.9501 36.03 36.1801 36 36.3201 35.83C36.9201 34.92 36.7401 33.4 36.5201 32.31C36.1401 30.4 34.4301 29.23 32.6401 28.73V28.72Z" fill="#FCFAF8"/>
<path d="M7.08998 38.0901C6.77998 38.5401 6.24999 38.7201 5.81999 38.2901C4.99999 37.5801 4.92999 36.3101 5.29999 35.3101C5.87999 34.0301 6.68999 32.8701 7.92999 32.1401C9.36999 31.6401 11.03 31.2901 12.4 32.2201L13.07 32.7601L12.61 33.3501C11 35.3501 8.70998 36.1901 7.08998 38.0801V38.0901ZM7.08998 38.0901C8.58998 36.4301 10.23 34.4501 11.13 32.4601L11.34 33.5901C11.39 33.6401 10.68 33.5901 10.5 33.6201C9.77999 33.7201 8.85999 33.7401 8.24999 34.1001C7.21999 34.8301 5.73998 35.5201 5.55998 36.9201C5.36998 37.8201 6.28998 39.1801 7.09998 38.0901H7.08998Z" fill="#FCFAF8"/>
</svg>
