<svg width="40" height="47" viewBox="0 0 40 47" fill="none" xmlns="http://www.w3.org/2000/svg">
<path d="M18.85 0.0100098C19.67 4.77001 20.71 9.56001 22.2 14.14C22.59 15.24 23.17 16.19 24.14 16.57C25.11 16.98 26.39 17.1 27.57 17.32C30.31 17.8 36.54 18.9 39.23 19.37C35.57 19.95 31.27 20.59 27.78 21.7C25.62 22.34 23.92 23.42 23.72 25.82C22.92 32.47 23.29 39.89 23.7 46.61C21.94 41.86 19.36 34.93 17.62 30.19C15.66 23.05 9.3 24.19 3.29 23.45L0 22.94C4.59 21.47 9.33 19.77 13.55 17.45C16.04 16.23 16.13 13.71 16.62 11.26C17.32 7.68001 18.26 3.46 18.85 0V0.0100098ZM18.85 0.0100098C18.25 3.82001 17.86 7.70999 17.39 11.43C17 17.05 15.62 17.92 10.77 20.34C8.47 21.5 6.09 22.52 3.67 23.41L3.52 21.87C10.15 22.31 17.08 21.56 19.44 29.52C20.27 31.72 22.45 37.52 23.3 39.78L21.37 40.18C21.26 37.74 21.24 35.31 21.31 32.87C21.54 29.79 21.33 26.57 22.43 23.57C23.25 21.62 25.46 20.54 27.28 20.04C29.66 19.36 32.06 18.89 34.49 18.57L34.47 20.1L27.31 18.58C24.62 18.08 22.04 17.58 21.29 14.43C20.07 9.66999 19.26 4.88 18.86 0L18.85 0.0100098Z" fill="#ED5B2B"/>
<path d="M11.27 11.81C11.39 10.13 10.76 8.55006 9.84998 7.17006C9.16998 6.14006 8.29998 5.27005 7.11998 5.22005C7.41998 5.24005 7.35998 5.02003 7.32998 5.33003C7.51998 5.88003 8.28998 6.47004 8.60998 7.12004C9.28998 8.25004 9.39998 9.63003 9.91998 10.74C10.2 11.46 10.93 12.26 11.13 12.9C11.27 12.56 11.26 12.17 11.28 11.8L11.27 11.81ZM11.27 11.81C11.27 12.2 11.27 12.6001 11.16 12.9801C10.15 11.6801 8.82998 10.3801 8.02998 8.95006C7.54998 8.26006 7.14998 7.87003 6.47998 7.33003C5.48998 6.63003 4.86998 4.93005 5.87998 3.85005C6.31998 3.24005 7.39998 3.16006 8.05998 3.48006C11.08 4.76006 11.29 9.03004 11.28 11.81H11.27Z" fill="#ED5B2B"/>
<path d="M29.0399 6.95003C29.8299 5.54003 31.4099 3.93002 33.1799 4.79002C34.2299 5.33002 34.5699 6.92001 33.6899 7.81001C33.4999 7.98001 30.6799 10.36 30.3999 10.6C29.4999 11.4 28.3199 12.73 26.7399 13.25L26.4999 12.96C26.1399 12.53 26.1599 12.08 26.2099 11.76C26.7099 9.92002 28.0999 8.55001 29.0399 6.96001V6.95003ZM29.0399 6.95003C28.1499 8.40003 27.1799 10.07 27.2099 11.81C27.2299 12.01 27.34 12.1 27.34 12.05L26.6399 11.95C27.4399 11.31 28.02 10.15 29.05 9.14003C30.14 8.10003 31.5299 7.22 32.8099 6.58C33.2299 6.01 32.7099 5.19003 32.0099 5.11003C30.7399 4.83003 29.64 5.93003 29.02 6.95003H29.0399Z" fill="#ED5B2B"/>
<path d="M32 27.94C33.86 28.46 35.71 29.38 36.6 31.24C37.27 32.71 37.92 34.37 37.13 36C34.72 39.34 32 34.4 30.86 32.37C29.8 30.64 29.59 28.34 28.05 26.98C29.44 27 30.72 27.5 32 27.95V27.94ZM32 27.94C30.88 27.56 29.67 27.21 28.48 27.33L28.58 27.03C29.43 27.58 29.99 28.48 30.53 29.24C31.61 30.76 32.79 32.2 33.96 33.63C34.48 34.28 35.33 35.3 35.33 35.2C35.31 35.25 35.54 35.22 35.68 35.05C36.28 34.14 36.1 32.62 35.88 31.53C35.5 29.62 33.79 28.45 32 27.95V27.94Z" fill="#ED5B2B"/>
<path d="M6.44997 37.31C6.13997 37.76 5.60997 37.94 5.17997 37.51C4.35997 36.8 4.28997 35.53 4.65997 34.53C5.23997 33.25 6.04997 32.0901 7.28997 31.3601C8.72997 30.8601 10.39 30.51 11.76 31.44L12.43 31.9801L11.97 32.57C10.36 34.57 8.06997 35.41 6.44997 37.3V37.31ZM6.44997 37.31C7.94997 35.65 9.58997 33.67 10.49 31.68L10.7 32.81C10.75 32.86 10.04 32.81 9.85997 32.84C9.13997 32.94 8.21997 32.96 7.60997 33.32C6.57997 34.05 5.09997 34.7401 4.91997 36.1401C4.72997 37.0401 5.64997 38.4 6.45997 37.31H6.44997Z" fill="#ED5B2B"/>
</svg>
