<svg width="9" height="23" viewBox="0 0 9 23" fill="none" xmlns="http://www.w3.org/2000/svg">
<path d="M7.2 22.05C5.7 22.05 4.53333 21.6167 3.7 20.75C2.86667 19.9 2.45 18.8 2.45 17.45V15.375C2.45 14.675 2.35833 14.1083 2.175 13.675C2.00833 13.225 1.75 12.9 1.4 12.7C1.05 12.5 0.608333 12.4 0.075 12.4V9.75C0.608333 9.75 1.05 9.65 1.4 9.45C1.75 9.25 2.00833 8.93333 2.175 8.5C2.35833 8.05 2.45 7.475 2.45 6.775V4.7C2.45 3.35 2.86667 2.25 3.7 1.4C4.53333 0.533332 5.7 0.099999 7.2 0.099999H8.7V2.9C7.58333 2.86667 6.76667 3.025 6.25 3.375C5.75 3.70833 5.5 4.26667 5.5 5.05V7C5.5 8.18333 5.21667 9.11667 4.65 9.8C4.08333 10.4667 3.40833 10.8667 2.625 11V11.1C3.40833 11.2333 4.08333 11.6417 4.65 12.325C5.21667 13.0083 5.5 13.95 5.5 15.15V17.075C5.5 17.8917 5.75 18.475 6.25 18.825C6.76667 19.175 7.58333 19.3333 8.7 19.3V22.05H7.2Z" fill="#ED5B2B"/>
</svg>
